<mxfile host="" modified="2020-07-24T07:18:54.097Z" agent="5.0 (Macintosh; Intel Mac OS X 10_15_4) AppleWebKit/537.36 (KHTML, like Gecko) Code/1.46.1 Chrome/78.0.3904.130 Electron/7.3.1 Safari/537.36" etag="GSFng6nNywPawpfgyJiF" version="13.1.3">
    <diagram id="6hGFLwfOUW9BJ-s0fimq" name="Page-1">
        <mxGraphModel dx="2039" dy="785" grid="1" gridSize="10" guides="1" tooltips="1" connect="1" arrows="1" fold="1" page="1" pageScale="1" pageWidth="827" pageHeight="1169" math="0" shadow="0">
            <root>
                <mxCell id="0"/>
                <mxCell id="1" parent="0"/>
                <mxCell id="6" style="edgeStyle=orthogonalEdgeStyle;rounded=0;orthogonalLoop=1;jettySize=auto;html=1;exitX=0.5;exitY=1;exitDx=0;exitDy=0;entryX=0.5;entryY=0;entryDx=0;entryDy=0;" edge="1" parent="1" source="2" target="5">
                    <mxGeometry relative="1" as="geometry"/>
                </mxCell>
                <mxCell id="2" value="&lt;div style=&quot;color: rgb(171 , 178 , 191) ; background-color: rgb(40 , 44 , 52) ; font-family: &amp;#34;monaco&amp;#34; , &amp;#34;menlo&amp;#34; , &amp;#34;monaco&amp;#34; , &amp;#34;courier new&amp;#34; , monospace ; font-weight: normal ; font-size: 13px ; line-height: 20px&quot;&gt;&lt;div&gt;&lt;span style=&quot;color: #abb2bf&quot;&gt;new_slave &lt;/span&gt;&lt;span style=&quot;color: #c678dd&quot;&gt;=&lt;/span&gt;&lt;span style=&quot;color: #abb2bf&quot;&gt; &lt;/span&gt;&lt;span style=&quot;color: #61afef&quot;&gt;bond_alloc_slave&lt;/span&gt;&lt;span style=&quot;color: #abb2bf&quot;&gt;(bond);&lt;/span&gt;&lt;/div&gt;&lt;div&gt;&lt;span style=&quot;color: #abb2bf&quot;&gt;    &lt;/span&gt;&lt;span style=&quot;color: #e06c75&quot;&gt;new_slave&lt;/span&gt;&lt;span style=&quot;color: #abb2bf&quot;&gt;-&amp;gt;&lt;/span&gt;&lt;span style=&quot;color: #e06c75&quot;&gt;bond&lt;/span&gt;&lt;span style=&quot;color: #abb2bf&quot;&gt; &lt;/span&gt;&lt;span style=&quot;color: #c678dd&quot;&gt;=&lt;/span&gt;&lt;span style=&quot;color: #abb2bf&quot;&gt; bond;&lt;/span&gt;&lt;/div&gt;&lt;div&gt;&lt;span style=&quot;color: #abb2bf&quot;&gt;    &lt;/span&gt;&lt;span style=&quot;color: #e06c75&quot;&gt;new_slave&lt;/span&gt;&lt;span style=&quot;color: #abb2bf&quot;&gt;-&amp;gt;&lt;/span&gt;&lt;span style=&quot;color: #e06c75&quot;&gt;dev&lt;/span&gt;&lt;span style=&quot;color: #abb2bf&quot;&gt; &lt;/span&gt;&lt;span style=&quot;color: #c678dd&quot;&gt;=&lt;/span&gt;&lt;span style=&quot;color: #abb2bf&quot;&gt; slave_dev;&lt;/span&gt;&lt;/div&gt;&lt;/div&gt;" style="text;whiteSpace=wrap;html=1;" vertex="1" parent="1">
                    <mxGeometry x="100" y="190" width="300" height="70" as="geometry"/>
                </mxCell>
                <mxCell id="4" style="edgeStyle=orthogonalEdgeStyle;rounded=0;orthogonalLoop=1;jettySize=auto;html=1;exitX=0.5;exitY=1;exitDx=0;exitDy=0;" edge="1" parent="1" source="3" target="2">
                    <mxGeometry relative="1" as="geometry"/>
                </mxCell>
                <mxCell id="3" value="&lt;meta charset=&quot;utf-8&quot;&gt;&lt;div style=&quot;color: rgb(171, 178, 191); background-color: rgb(40, 44, 52); font-family: Monaco, Menlo, Monaco, &amp;quot;Courier New&amp;quot;, monospace; font-weight: normal; font-size: 13px; line-height: 20px;&quot;&gt;&lt;div&gt;&lt;span style=&quot;color: #c678dd;&quot;&gt;struct&lt;/span&gt;&lt;span style=&quot;color: #abb2bf;&quot;&gt; bonding &lt;/span&gt;&lt;span style=&quot;color: #c678dd;&quot;&gt;*&lt;/span&gt;&lt;span style=&quot;color: #abb2bf;&quot;&gt;bond &lt;/span&gt;&lt;span style=&quot;color: #c678dd;&quot;&gt;=&lt;/span&gt;&lt;span style=&quot;color: #abb2bf;&quot;&gt; &lt;/span&gt;&lt;span style=&quot;color: #61afef;&quot;&gt;netdev_priv&lt;/span&gt;&lt;span style=&quot;color: #abb2bf;&quot;&gt;(bond_dev);&lt;/span&gt;&lt;/div&gt;&lt;/div&gt;" style="text;whiteSpace=wrap;html=1;" vertex="1" parent="1">
                    <mxGeometry x="60" y="140" width="380" height="30" as="geometry"/>
                </mxCell>
                <mxCell id="8" style="edgeStyle=orthogonalEdgeStyle;rounded=0;orthogonalLoop=1;jettySize=auto;html=1;exitX=0.5;exitY=1;exitDx=0;exitDy=0;entryX=0.5;entryY=0;entryDx=0;entryDy=0;" edge="1" parent="1" source="5" target="7">
                    <mxGeometry relative="1" as="geometry"/>
                </mxCell>
                <mxCell id="5" value="&lt;meta charset=&quot;utf-8&quot;&gt;&lt;div style=&quot;color: rgb(171, 178, 191); background-color: rgb(40, 44, 52); font-family: Monaco, Menlo, Monaco, &amp;quot;Courier New&amp;quot;, monospace; font-weight: normal; font-size: 13px; line-height: 20px;&quot;&gt;&lt;div&gt;&lt;span style=&quot;color: #abb2bf;&quot;&gt;res &lt;/span&gt;&lt;span style=&quot;color: #c678dd;&quot;&gt;=&lt;/span&gt;&lt;span style=&quot;color: #abb2bf;&quot;&gt; &lt;/span&gt;&lt;span style=&quot;color: #61afef;&quot;&gt;dev_open&lt;/span&gt;&lt;span style=&quot;color: #abb2bf;&quot;&gt;(slave_dev);&lt;/span&gt;&lt;/div&gt;&lt;/div&gt;" style="text;whiteSpace=wrap;html=1;" vertex="1" parent="1">
                    <mxGeometry x="135" y="280" width="230" height="40" as="geometry"/>
                </mxCell>
                <mxCell id="10" style="edgeStyle=orthogonalEdgeStyle;rounded=0;orthogonalLoop=1;jettySize=auto;html=1;exitX=0.5;exitY=1;exitDx=0;exitDy=0;entryX=0.5;entryY=0;entryDx=0;entryDy=0;" edge="1" parent="1" source="7" target="9">
                    <mxGeometry relative="1" as="geometry"/>
                </mxCell>
                <mxCell id="7" value="&lt;div style=&quot;background-color: rgb(40 , 44 , 52) ; font-family: &amp;#34;monaco&amp;#34; , &amp;#34;menlo&amp;#34; , &amp;#34;monaco&amp;#34; , &amp;#34;courier new&amp;#34; , monospace ; font-weight: normal ; font-size: 13px ; line-height: 20px&quot;&gt;&lt;div style=&quot;color: rgb(171 , 178 , 191)&quot;&gt;&lt;span style=&quot;color: #c678dd&quot;&gt;switch&lt;/span&gt;&lt;span style=&quot;color: #abb2bf&quot;&gt; (&lt;/span&gt;&lt;span style=&quot;color: #61afef&quot;&gt;BOND_MODE&lt;/span&gt;&lt;span style=&quot;color: #abb2bf&quot;&gt;(&lt;/span&gt;&lt;span style=&quot;color: #e06c75&quot;&gt;bond&lt;/span&gt;&lt;span style=&quot;color: #abb2bf&quot;&gt;)) {&lt;/span&gt;&lt;/div&gt;&lt;div style=&quot;color: rgb(171 , 178 , 191)&quot;&gt;&lt;span style=&quot;color: #abb2bf&quot;&gt;    &lt;/span&gt;&lt;span style=&quot;color: #c678dd&quot;&gt;case&lt;/span&gt;&lt;span style=&quot;color: #abb2bf&quot;&gt; BOND_MODE_ACTIVEBACKUP:&lt;/span&gt;&lt;/div&gt;&lt;div style=&quot;color: rgb(171 , 178 , 191)&quot;&gt;&lt;span style=&quot;color: #abb2bf&quot;&gt;&lt;/span&gt;&lt;span style=&quot;color: #61afef&quot;&gt;&amp;nbsp; &amp;nbsp; bond_set_slave_inactive_flags&lt;/span&gt;&lt;span style=&quot;color: #abb2bf&quot;&gt;(&lt;/span&gt;&lt;span style=&quot;color: #e06c75&quot;&gt;new_slave&lt;/span&gt;&lt;span style=&quot;color: #abb2bf&quot;&gt;,&amp;nbsp;&lt;/span&gt;&lt;span style=&quot;color: rgb(224 , 108 , 117)&quot;&gt;BOND_SLAVE_NOTIFY_NOW&lt;/span&gt;);&lt;/div&gt;&lt;div style=&quot;color: rgb(171 , 178 , 191)&quot;&gt;&lt;span style=&quot;color: #abb2bf&quot;&gt;&lt;/span&gt;&lt;span style=&quot;color: #c678dd&quot;&gt;&amp;nbsp; &amp;nbsp; break&lt;/span&gt;&lt;span style=&quot;color: #abb2bf&quot;&gt;;&lt;/span&gt;&lt;/div&gt;&lt;div style=&quot;color: rgb(171 , 178 , 191)&quot;&gt;&lt;span style=&quot;color: #abb2bf&quot;&gt;    &lt;/span&gt;&lt;span style=&quot;color: #c678dd&quot;&gt;case&lt;/span&gt;&lt;span style=&quot;color: #abb2bf&quot;&gt; BOND_MODE_8023AD:&lt;/span&gt;&lt;/div&gt;&lt;div style=&quot;color: rgb(171 , 178 , 191)&quot;&gt;&lt;span style=&quot;color: rgb(97 , 175 , 239)&quot;&gt;&amp;nbsp; &amp;nbsp; bond_set_slave_inactive_flags&lt;/span&gt;(&lt;span style=&quot;color: rgb(224 , 108 , 117)&quot;&gt;new_slave&lt;/span&gt;,&lt;span style=&quot;color: rgb(224 , 108 , 117)&quot;&gt; BOND_SLAVE_NOTIFY_NOW&lt;/span&gt;);&lt;br&gt;&lt;/div&gt;&lt;div style=&quot;color: rgb(171 , 178 , 191)&quot;&gt;&lt;span style=&quot;color: rgb(198 , 120 , 221)&quot;&gt;&amp;nbsp; &amp;nbsp; if&lt;/span&gt; (&lt;span style=&quot;color: rgb(86 , 182 , 194)&quot;&gt;!&lt;/span&gt;prev_slave) {&lt;br&gt;&lt;/div&gt;&lt;div style=&quot;color: rgb(171 , 178 , 191)&quot;&gt;&lt;span style=&quot;color: #abb2bf&quot;&gt;&lt;/span&gt;&lt;span style=&quot;color: #61afef&quot;&gt;&amp;nbsp; &amp;nbsp; &amp;nbsp; &amp;nbsp; SLAVE_AD_INFO&lt;/span&gt;&lt;span style=&quot;color: #abb2bf&quot;&gt;(new_slave)-&amp;gt;&lt;/span&gt;&lt;span style=&quot;color: #e06c75&quot;&gt;id&lt;/span&gt;&lt;span style=&quot;color: #abb2bf&quot;&gt; &lt;/span&gt;&lt;span style=&quot;color: #c678dd&quot;&gt;=&lt;/span&gt;&lt;span style=&quot;color: #abb2bf&quot;&gt; &lt;/span&gt;&lt;span style=&quot;color: #d19a66&quot;&gt;1&lt;/span&gt;&lt;span style=&quot;color: #abb2bf&quot;&gt;;&lt;/span&gt;&lt;/div&gt;&lt;div&gt;&lt;font color=&quot;#7f848e&quot;&gt;&lt;i&gt;&amp;nbsp; &amp;nbsp; &amp;nbsp; &amp;nbsp;&amp;nbsp;&lt;/i&gt;&lt;/font&gt;&lt;span style=&quot;color: rgb(97 , 175 , 239)&quot;&gt;bond_3ad_initialize&lt;/span&gt;&lt;font color=&quot;#abb2bf&quot;&gt;(bond, &lt;/font&gt;&lt;span style=&quot;color: rgb(209 , 154 , 102)&quot;&gt;1000&lt;/span&gt;&lt;span style=&quot;color: rgb(198 , 120 , 221)&quot;&gt;/&lt;/span&gt;&lt;font color=&quot;#abb2bf&quot;&gt;AD_TIMER_INTERVAL);&lt;/font&gt;&lt;br&gt;&lt;/div&gt;&lt;div style=&quot;color: rgb(171 , 178 , 191)&quot;&gt;&lt;span style=&quot;color: #abb2bf&quot;&gt;&amp;nbsp; &amp;nbsp; } &lt;/span&gt;&lt;span style=&quot;color: #c678dd&quot;&gt;else&lt;/span&gt;&lt;span style=&quot;color: #abb2bf&quot;&gt; {&lt;/span&gt;&lt;/div&gt;&lt;div style=&quot;color: rgb(171 , 178 , 191)&quot;&gt;&lt;span style=&quot;color: #abb2bf&quot;&gt;&lt;/span&gt;&lt;span style=&quot;color: #61afef&quot;&gt;&amp;nbsp; &amp;nbsp; &amp;nbsp; &amp;nbsp; SLAVE_AD_INFO&lt;/span&gt;&lt;span style=&quot;color: #abb2bf&quot;&gt;(new_slave)-&amp;gt;&lt;/span&gt;&lt;span style=&quot;color: #e06c75&quot;&gt;id&lt;/span&gt;&lt;span style=&quot;color: #abb2bf&quot;&gt; &lt;/span&gt;&lt;span style=&quot;color: #c678dd&quot;&gt;=&lt;/span&gt;&lt;/div&gt;&lt;div style=&quot;color: rgb(171 , 178 , 191)&quot;&gt;&lt;span style=&quot;color: #abb2bf&quot;&gt;&lt;/span&gt;&lt;span style=&quot;color: #61afef&quot;&gt;&amp;nbsp; &amp;nbsp; &amp;nbsp; &amp;nbsp; SLAVE_AD_INFO&lt;/span&gt;&lt;span style=&quot;color: #abb2bf&quot;&gt;(prev_slave)-&amp;gt;&lt;/span&gt;&lt;span style=&quot;color: #e06c75&quot;&gt;id&lt;/span&gt;&lt;span style=&quot;color: #abb2bf&quot;&gt; &lt;/span&gt;&lt;span style=&quot;color: #c678dd&quot;&gt;+&lt;/span&gt;&lt;span style=&quot;color: #abb2bf&quot;&gt; &lt;/span&gt;&lt;span style=&quot;color: #d19a66&quot;&gt;1&lt;/span&gt;&lt;span style=&quot;color: #abb2bf&quot;&gt;;&lt;/span&gt;&lt;/div&gt;&lt;div style=&quot;color: rgb(171 , 178 , 191)&quot;&gt;&lt;span style=&quot;color: #abb2bf&quot;&gt;&amp;nbsp; &amp;nbsp; }&lt;/span&gt;&lt;/div&gt;&lt;div style=&quot;color: rgb(171 , 178 , 191)&quot;&gt;&lt;span style=&quot;color: #61afef&quot;&gt;&amp;nbsp; &amp;nbsp; bond_3ad_bind_slave&lt;/span&gt;&lt;span style=&quot;color: #abb2bf&quot;&gt;(&lt;/span&gt;&lt;span style=&quot;color: #e06c75&quot;&gt;new_slave&lt;/span&gt;&lt;span style=&quot;color: #abb2bf&quot;&gt;);&lt;/span&gt;&lt;/div&gt;&lt;div style=&quot;color: rgb(171 , 178 , 191)&quot;&gt;&lt;span style=&quot;color: #abb2bf&quot;&gt;&lt;/span&gt;&lt;span style=&quot;color: #c678dd&quot;&gt;&amp;nbsp; &amp;nbsp; break&lt;/span&gt;&lt;span style=&quot;color: #abb2bf&quot;&gt;;&lt;/span&gt;&lt;/div&gt;&lt;div style=&quot;color: rgb(171 , 178 , 191)&quot;&gt;&lt;span style=&quot;color: #abb2bf&quot;&gt;    &lt;/span&gt;&lt;span style=&quot;color: #c678dd&quot;&gt;case&lt;/span&gt;&lt;span style=&quot;color: #abb2bf&quot;&gt; BOND_MODE_TLB:&lt;/span&gt;&lt;/div&gt;&lt;div style=&quot;color: rgb(171 , 178 , 191)&quot;&gt;&lt;span style=&quot;color: #abb2bf&quot;&gt;    &lt;/span&gt;&lt;span style=&quot;color: #c678dd&quot;&gt;case&lt;/span&gt;&lt;span style=&quot;color: #abb2bf&quot;&gt; BOND_MODE_ALB:&lt;/span&gt;&lt;/div&gt;&lt;div style=&quot;color: rgb(171 , 178 , 191)&quot;&gt;&lt;span style=&quot;color: #abb2bf&quot;&gt;&lt;/span&gt;&lt;span style=&quot;color: #61afef&quot;&gt;&amp;nbsp; &amp;nbsp; bond_set_active_slave&lt;/span&gt;&lt;span style=&quot;color: #abb2bf&quot;&gt;(&lt;/span&gt;&lt;span style=&quot;color: #e06c75&quot;&gt;new_slave&lt;/span&gt;&lt;span style=&quot;color: #abb2bf&quot;&gt;);&lt;/span&gt;&lt;/div&gt;&lt;div style=&quot;color: rgb(171 , 178 , 191)&quot;&gt;&lt;span style=&quot;color: #abb2bf&quot;&gt;&lt;/span&gt;&lt;span style=&quot;color: #61afef&quot;&gt;&amp;nbsp; &amp;nbsp; bond_set_slave_inactive_flags&lt;/span&gt;&lt;span style=&quot;color: #abb2bf&quot;&gt;(&lt;/span&gt;&lt;span style=&quot;color: #e06c75&quot;&gt;new_slave&lt;/span&gt;&lt;span style=&quot;color: #abb2bf&quot;&gt;,&lt;/span&gt;&lt;span style=&quot;color: #e06c75&quot;&gt; BOND_SLAVE_NOTIFY_NOW&lt;/span&gt;&lt;span style=&quot;color: #abb2bf&quot;&gt;);&lt;/span&gt;&lt;/div&gt;&lt;div style=&quot;color: rgb(171 , 178 , 191)&quot;&gt;&lt;span style=&quot;color: #abb2bf&quot;&gt;&lt;/span&gt;&lt;span style=&quot;color: #c678dd&quot;&gt;&amp;nbsp; &amp;nbsp; break&lt;/span&gt;&lt;span style=&quot;color: #abb2bf&quot;&gt;;&lt;/span&gt;&lt;/div&gt;&lt;div style=&quot;color: rgb(171 , 178 , 191)&quot;&gt;&lt;span style=&quot;color: #abb2bf&quot;&gt;&lt;/span&gt;&lt;span style=&quot;color: #c678dd&quot;&gt;default&lt;/span&gt;&lt;span style=&quot;color: #abb2bf&quot;&gt;:&lt;/span&gt;&lt;/div&gt;&lt;div style=&quot;color: rgb(171 , 178 , 191)&quot;&gt;&lt;span style=&quot;color: #abb2bf&quot;&gt;&lt;/span&gt;&lt;span style=&quot;color: #61afef&quot;&gt;&amp;nbsp; &amp;nbsp; netdev_dbg&lt;/span&gt;&lt;span style=&quot;color: #abb2bf&quot;&gt;(&lt;/span&gt;&lt;span style=&quot;color: #e06c75&quot;&gt;bond_dev&lt;/span&gt;&lt;span style=&quot;color: #abb2bf&quot;&gt;,&lt;/span&gt;&lt;span style=&quot;color: #e06c75&quot;&gt; &lt;/span&gt;&lt;span style=&quot;color: #98c379&quot;&gt;&quot;This slave is always active in trunk mode&lt;/span&gt;&lt;span style=&quot;color: #56b6c2&quot;&gt;\n&lt;/span&gt;&lt;span style=&quot;color: #98c379&quot;&gt;&quot;&lt;/span&gt;&lt;span style=&quot;color: #abb2bf&quot;&gt;);&lt;/span&gt;&lt;/div&gt;&lt;div style=&quot;color: rgb(171 , 178 , 191)&quot;&gt;&lt;span style=&quot;color: #abb2bf&quot;&gt;&lt;/span&gt;&lt;span style=&quot;color: #61afef&quot;&gt;&amp;nbsp; &amp;nbsp; bond_set_active_slave&lt;/span&gt;&lt;span style=&quot;color: #abb2bf&quot;&gt;(&lt;/span&gt;&lt;span style=&quot;color: #e06c75&quot;&gt;new_slave&lt;/span&gt;&lt;span style=&quot;color: #abb2bf&quot;&gt;);&lt;/span&gt;&lt;/div&gt;&lt;div style=&quot;color: rgb(171 , 178 , 191)&quot;&gt;&lt;span style=&quot;color: rgb(198 , 120 , 221)&quot;&gt;&amp;nbsp; &amp;nbsp; if&lt;/span&gt; (&lt;span style=&quot;color: rgb(86 , 182 , 194)&quot;&gt;!&lt;/span&gt;&lt;span style=&quot;color: rgb(97 , 175 , 239)&quot;&gt;rcu_access_pointer&lt;/span&gt;(&lt;span style=&quot;color: rgb(224 , 108 , 117)&quot;&gt;bond&lt;/span&gt;&lt;span style=&quot;color: rgb(198 , 120 , 221)&quot;&gt;-&amp;gt;&lt;/span&gt;&lt;span style=&quot;color: rgb(224 , 108 , 117) ; font-style: italic&quot;&gt;curr_active_slave&lt;/span&gt;) &lt;span style=&quot;color: rgb(86 , 182 , 194)&quot;&gt;&amp;amp;&amp;amp;&lt;/span&gt;&lt;br&gt;&lt;/div&gt;&lt;div style=&quot;color: rgb(171 , 178 , 191)&quot;&gt;&lt;span style=&quot;color: #abb2bf&quot;&gt;&amp;nbsp; &amp;nbsp; &amp;nbsp; &amp;nbsp; new_slave&lt;/span&gt;&lt;span style=&quot;color: #c678dd&quot;&gt;-&amp;gt;&lt;/span&gt;&lt;span style=&quot;color: #abb2bf&quot;&gt;link &lt;/span&gt;&lt;span style=&quot;color: #c678dd&quot;&gt;==&lt;/span&gt;&lt;span style=&quot;color: #abb2bf&quot;&gt; BOND_LINK_UP)&lt;/span&gt;&lt;/div&gt;&lt;div style=&quot;color: rgb(171 , 178 , 191)&quot;&gt;&lt;span style=&quot;color: #abb2bf&quot;&gt;&lt;/span&gt;&lt;span style=&quot;color: #61afef&quot;&gt;&amp;nbsp; &amp;nbsp; &amp;nbsp; &amp;nbsp; rcu_assign_pointer&lt;/span&gt;&lt;span style=&quot;color: #abb2bf&quot;&gt;(&lt;/span&gt;&lt;span style=&quot;color: #e06c75&quot;&gt;bond&lt;/span&gt;&lt;span style=&quot;color: #c678dd&quot;&gt;-&amp;gt;&lt;/span&gt;&lt;span style=&quot;color: #e06c75 ; font-style: italic&quot;&gt;curr_active_slave&lt;/span&gt;&lt;span style=&quot;color: #abb2bf&quot;&gt;,&lt;/span&gt;&lt;span style=&quot;color: #e06c75&quot;&gt; new_slave&lt;/span&gt;&lt;span style=&quot;color: #abb2bf&quot;&gt;);&lt;/span&gt;&lt;/div&gt;&lt;div style=&quot;color: rgb(171 , 178 , 191)&quot;&gt;&lt;span style=&quot;color: #abb2bf&quot;&gt;&lt;/span&gt;&lt;span style=&quot;color: #c678dd&quot;&gt;&amp;nbsp; &amp;nbsp; &amp;nbsp; &amp;nbsp;break&lt;/span&gt;&lt;span style=&quot;color: #abb2bf&quot;&gt;;&lt;/span&gt;&lt;/div&gt;&lt;div style=&quot;color: rgb(171 , 178 , 191)&quot;&gt;&lt;span style=&quot;color: #abb2bf&quot;&gt;&amp;nbsp; &amp;nbsp; }&lt;/span&gt;&lt;/div&gt;&lt;/div&gt;" style="text;whiteSpace=wrap;html=1;" vertex="1" parent="1">
                    <mxGeometry x="-35" y="340" width="570" height="570" as="geometry"/>
                </mxCell>
                <mxCell id="9" value="&lt;div style=&quot;color: rgb(171 , 178 , 191) ; background-color: rgb(40 , 44 , 52) ; font-family: &amp;#34;monaco&amp;#34; , &amp;#34;menlo&amp;#34; , &amp;#34;monaco&amp;#34; , &amp;#34;courier new&amp;#34; , monospace ; font-weight: normal ; font-size: 13px ; line-height: 20px&quot;&gt;&lt;div&gt;&lt;span style=&quot;color: #abb2bf&quot;&gt;res &lt;/span&gt;&lt;span style=&quot;color: #c678dd&quot;&gt;=&lt;/span&gt;&lt;span style=&quot;color: #abb2bf&quot;&gt; &lt;/span&gt;&lt;span style=&quot;color: #61afef&quot;&gt;netdev_rx_handler_register&lt;/span&gt;&lt;span style=&quot;color: #abb2bf&quot;&gt;(slave_dev, bond_handle_frame,&amp;nbsp;&lt;/span&gt;new_slave);&lt;/div&gt;&lt;div&gt;res &lt;span style=&quot;color: rgb(198 , 120 , 221)&quot;&gt;=&lt;/span&gt; &lt;span style=&quot;color: rgb(97 , 175 , 239)&quot;&gt;bond_master_upper_dev_link&lt;/span&gt;(bond, new_slave);&lt;br&gt;&lt;/div&gt;&lt;div&gt;res &lt;span style=&quot;color: rgb(198 , 120 , 221)&quot;&gt;=&lt;/span&gt; &lt;span style=&quot;color: rgb(97 , 175 , 239)&quot;&gt;bond_sysfs_slave_add&lt;/span&gt;(new_slave);&lt;br&gt;&lt;/div&gt;&lt;div&gt;&lt;br&gt;&lt;/div&gt;&lt;/div&gt;" style="text;whiteSpace=wrap;html=1;" vertex="1" parent="1">
                    <mxGeometry x="-40" y="940" width="580" height="90" as="geometry"/>
                </mxCell>
            </root>
        </mxGraphModel>
    </diagram>
</mxfile>